<?xml version="1.0" encoding="UTF-8"?>
<svg width="161px" height="29px" viewBox="0 0 161 29" version="1.1" xmlns="http://www.w3.org/2000/svg" xmlns:xlink="http://www.w3.org/1999/xlink">
    <!-- Generator: Sketch 54.1 (76490) - https://sketchapp.com -->
    <title>Frame</title>
    <desc>Created with Sketch.</desc>
    <g id="Page-1" stroke="none" stroke-width="1" fill="none" fill-rule="evenodd">
        <g id="Artboard" transform="translate(-70.000000, -98.000000)" fill-rule="nonzero">
            <g id="Frame" transform="translate(69.500000, 98.000000)">
                <path d="M48.9532,16.4401 C48.7002,17.6542 48.1059,18.6027 47.1574,19.3235 C46.2089,20.0444 45.0455,20.4111 43.705,20.4111 C41.8586,20.4111 40.4423,19.8799 39.3547,18.7797 C38.2924,17.6921 37.7486,16.1998 37.7486,14.3408 C37.7486,12.4818 38.2798,11.0274 39.3673,9.90189 C40.4549,8.77636 41.846,8.23256 43.6165,8.23256 C44.9317,8.23256 46.0445,8.53608 46.9171,9.14311 C47.8024,9.75014 48.3967,10.6101 48.7508,11.7609 L48.852,12.1024 L52.0135,12.1024 L51.925,11.5333 C51.6342,9.66161 50.711,8.13139 49.1808,6.96792 C47.6759,5.81709 45.8295,5.23535 43.705,5.23535 C41.0113,5.23535 38.8109,6.08266 37.1416,7.752 C35.4723,9.42133 34.625,11.6345 34.625,14.3282 C34.625,17.0218 35.4723,19.2223 37.1416,20.9043 C38.8109,22.5863 41.0113,23.4336 43.705,23.4336 C45.9054,23.4336 47.8024,22.7886 49.3452,21.5366 C50.9007,20.2593 51.8239,18.6027 52.0641,16.5792 L52.1274,16.0354 L49.029,16.0354 L48.9532,16.4401 Z" id="Path" fill="#20A8FF"></path>
                <polygon id="Path" fill="#20A8FF" points="57.3378 0 54.2773 0 54.2773 22.8774 57.3378 22.8774"></polygon>
                <path d="M77.4576,19.8924 C77.3311,19.9303 77.2173,19.9683 77.0908,19.9809 C76.9644,20.0062 76.8379,20.0062 76.7114,20.0062 C76.5344,20.0062 76.4585,19.9683 76.4332,19.943 C76.4206,19.9177 76.3194,19.728 76.3194,18.8807 L76.3194,11.7734 C76.3194,10.6099 76.2435,9.74994 76.0918,9.1682 C75.9274,8.57382 75.6618,8.03002 75.2951,7.5621 C74.6881,6.80332 73.8661,6.25952 72.8417,5.91807 C71.8553,5.6019 70.5527,5.4375 68.9846,5.4375 C66.4933,5.4375 64.5458,5.94336 63.2053,6.94243 C61.8269,7.96679 61.0681,9.50966 60.9416,11.5331 L60.9037,12.0516 L63.9641,12.0516 L63.9894,11.5963 C64.0526,10.5087 64.4952,9.712 65.3172,9.18085 C66.1772,8.61176 67.505,8.33354 69.2375,8.33354 C70.6033,8.33354 71.6277,8.53588 72.3106,8.95322 C72.9176,9.31996 73.2084,9.82582 73.2084,10.5467 C73.2084,11.6848 71.3115,12.1528 69.7181,12.3425 L68.0488,12.5448 C66.1772,12.8104 64.8746,13.038 64.0905,13.2657 C63.2812,13.4933 62.6109,13.7968 62.1304,14.1636 C61.5107,14.6315 61.0302,15.1879 60.714,15.8329 C60.3978,16.4652 60.2461,17.1861 60.2461,17.9701 C60.2461,19.6648 60.8405,20.9926 62.0166,21.9158 C63.1547,22.8264 64.7734,23.2817 66.8221,23.2817 C68.4155,23.2817 69.8066,23.0414 70.9448,22.5608 C71.8174,22.1941 72.6267,21.6629 73.3602,20.98 C73.4867,21.5111 73.6764,21.9285 73.9293,22.232 C74.3466,22.7252 75.0042,22.9781 75.8515,22.9781 C76.1424,22.9781 76.4459,22.9528 76.7747,22.9023 C77.0908,22.8517 77.407,22.7758 77.7611,22.662 L78.1152,22.5608 L78.0899,19.7027 L77.4576,19.8924 Z M63.3318,18.0207 C63.3318,17.3378 63.5594,16.8699 64.04,16.5411 C64.4193,16.2882 65.4563,15.8835 68.2385,15.4408 C69.9963,15.1753 71.2862,14.9476 72.0703,14.7579 C72.5129,14.6568 72.8923,14.5429 73.2084,14.4291 L73.2084,15.8708 C73.2084,17.1987 72.6647,18.2484 71.5518,19.0957 C70.401,19.9556 68.8834,20.3856 67.0118,20.3856 C65.8484,20.3856 64.9125,20.158 64.2549,19.6901 C63.6353,19.2727 63.3318,18.7163 63.3318,18.0207 Z" id="Shape" fill="#20A8FF"></path>
                <path d="M90.0011,12.9625 L85.8658,12.3302 C84.2091,12.0899 83.4883,11.7737 83.1721,11.5461 C82.7801,11.2679 82.5904,10.8885 82.5904,10.3573 C82.5904,9.6997 82.9066,9.21913 83.5768,8.82709 C84.3229,8.39711 85.3852,8.18212 86.7637,8.18212 C88.3191,8.18212 89.5205,8.43505 90.3425,8.92826 C91.1266,9.39618 91.5692,10.0791 91.7083,11.0402 L91.7716,11.4576 L94.794,11.4576 L94.7814,10.9643 C94.7434,9.18119 94.0226,7.76479 92.6189,6.75307 C91.2657,5.7793 89.3941,5.27344 87.0545,5.27344 C84.7403,5.27344 82.8939,5.72871 81.5408,6.62661 C80.1244,7.56245 79.4162,8.86503 79.4162,10.4838 C79.4162,11.9128 79.8841,13.0257 80.7946,13.8098 C81.6799,14.5686 83.0457,15.0744 84.9932,15.3653 L89.6723,16.0609 C90.6334,16.2 91.3289,16.4403 91.721,16.7691 C92.0751,17.0599 92.2395,17.452 92.2395,17.9831 C92.2395,18.7799 91.8727,19.3363 91.0887,19.7663 C90.2287,20.2342 88.9135,20.4745 87.1936,20.4745 C85.5876,20.4745 84.3482,20.1963 83.5009,19.6398 C82.6916,19.1087 82.2237,18.3372 82.0972,17.2876 L82.0466,16.8576 L78.9609,16.8576 L78.9989,17.3761 C79.138,19.3237 79.9221,20.8412 81.3258,21.9035 C82.7042,22.9405 84.6012,23.4717 86.9786,23.4717 C89.6596,23.4717 91.7463,22.9911 93.1753,22.0553 C94.6676,21.0689 95.4263,19.6272 95.4263,17.7681 C95.4263,16.377 94.9711,15.2768 94.0858,14.5054 C93.2132,13.7466 91.8854,13.2407 90.0011,12.9625 Z" id="Path" fill="#20A8FF"></path>
                <path d="M111.273,14.4927 C110.413,13.7466 109.073,13.2534 107.189,12.9625 L103.053,12.3302 C101.397,12.0899 100.6758,11.7737 100.3596,11.5461 C99.9676,11.2679 99.7779,10.8885 99.7779,10.3573 C99.7779,9.6997 100.0941,9.21913 100.7643,8.82709 C101.51,8.39711 102.573,8.18212 103.951,8.18212 C105.507,8.18212 106.708,8.43505 107.53,8.92826 C108.314,9.39618 108.757,10.0791 108.896,11.0402 L108.959,11.4576 L111.981,11.4576 L111.969,10.9643 C111.931,9.18119 111.21,7.76479 109.806,6.75307 C108.453,5.7793 106.582,5.27344 104.242,5.27344 C101.928,5.27344 100.0814,5.72871 98.7283,6.62661 C97.3119,7.56245 96.6037,8.86503 96.6037,10.4838 C96.6037,11.9128 97.0716,13.0257 97.9821,13.8098 C98.8674,14.5686 100.2332,15.0744 102.181,15.3653 L106.86,16.0609 C107.821,16.2 108.516,16.4403 108.908,16.7691 C109.263,17.0599 109.427,17.452 109.427,17.9831 C109.427,18.7799 109.06,19.3363 108.276,19.7663 C107.416,20.2342 106.101,20.4745 104.381,20.4745 C102.775,20.4745 101.536,20.1963 100.6884,19.6398 C99.8791,19.1087 99.4112,18.3372 99.2847,17.2876 L99.2341,16.8576 L96.1484,16.8576 L96.1864,17.3761 C96.3255,19.3237 97.1096,20.8412 98.5133,21.9035 C99.8917,22.9405 101.789,23.4717 104.166,23.4717 C106.847,23.4717 108.934,22.9911 110.363,22.0553 C111.855,21.0689 112.614,19.6272 112.614,17.7681 C112.601,16.3517 112.159,15.2515 111.273,14.4927 Z" id="Path" fill="#20A8FF"></path>
                <path d="M118.747,1.125 L115.649,1.125 L115.649,5.82948 L112.93,5.82948 L112.93,8.56112 L115.649,8.56112 L115.649,18.3874 C115.649,20.082 115.914,21.2582 116.458,21.9917 C117.027,22.7504 117.976,23.1425 119.253,23.1425 C119.657,23.1425 120.087,23.1172 120.543,23.054 C120.985,22.9907 121.466,22.9022 121.972,22.7757 L122.351,22.6872 L122.351,19.8544 L121.744,20.0062 C121.415,20.0947 121.112,20.1453 120.859,20.1832 C120.606,20.2212 120.378,20.2338 120.163,20.2338 C119.379,20.2338 119.101,20.0694 119,19.9809 C118.975,19.9556 118.734,19.6647 118.734,18.1218 L118.734,8.56112 L122.376,8.56112 L122.376,5.82948 L118.734,5.82948 L118.734,1.125 L118.747,1.125 Z" id="Path" fill="#FF9C00"></path>
                <path d="M140.79,19.8924 C140.663,19.9303 140.549,19.9683 140.423,19.9809 C140.296,20.0062 140.17,20.0062 140.043,20.0062 C139.866,20.0062 139.791,19.9683 139.765,19.943 C139.753,19.9177 139.651,19.728 139.651,18.8807 L139.651,11.7734 C139.651,10.6099 139.576,9.74994 139.424,9.1682 C139.259,8.57382 138.994,8.03002 138.627,7.5621 C138.02,6.80332 137.198,6.25952 136.174,5.91807 C135.187,5.6019 133.885,5.4375 132.317,5.4375 C129.825,5.4375 127.878,5.94336 126.537,6.94243 C125.159,7.96679 124.4,9.50966 124.274,11.5331 L124.236,12.0516 L127.296,12.0516 L127.321,11.5963 C127.385,10.5087 127.827,9.712 128.649,9.18085 C129.509,8.61176 130.837,8.33354 132.57,8.33354 C133.935,8.33354 134.96,8.53588 135.643,8.95322 C136.25,9.31996 136.54,9.82582 136.54,10.5467 C136.54,11.6848 134.644,12.1528 133.05,12.3425 L131.381,12.5448 C129.509,12.8104 128.207,13.038 127.423,13.2657 C126.613,13.4933 125.943,13.7968 125.462,14.1636 C124.843,14.6315 124.362,15.1879 124.046,15.8329 C123.73,16.4779 123.578,17.1861 123.578,17.9701 C123.578,19.6648 124.172,20.9926 125.349,21.9158 C126.487,22.8264 128.105,23.2817 130.154,23.2817 C131.748,23.2817 133.139,23.0414 134.277,22.5608 C135.149,22.1941 135.959,21.6629 136.692,20.98 C136.819,21.5111 137.008,21.9285 137.261,22.232 C137.679,22.7252 138.336,22.9781 139.184,22.9781 C139.474,22.9781 139.778,22.9528 140.107,22.9023 C140.423,22.8517 140.739,22.7758 141.093,22.662 L141.447,22.5608 L141.422,19.7027 L140.79,19.8924 Z M126.676,18.0207 C126.676,17.3378 126.904,16.8699 127.385,16.5411 C127.764,16.2882 128.801,15.8835 131.583,15.4408 C133.341,15.1753 134.631,14.9476 135.415,14.7579 C135.858,14.6568 136.237,14.5429 136.553,14.4291 L136.553,15.8708 C136.553,17.1987 136.009,18.2484 134.896,19.0957 C133.746,19.9556 132.228,20.3856 130.356,20.3856 C129.193,20.3856 128.257,20.158 127.6,19.6901 C126.967,19.2727 126.676,18.7163 126.676,18.0207 Z" id="Shape" fill="#FF9C00"></path>
                <path d="M157.596,5.82954 L157.596,7.81504 C156.938,7.17007 156.23,6.65156 155.471,6.27217 C154.358,5.71572 153.081,5.4375 151.677,5.4375 C149.021,5.4375 146.846,6.27217 145.202,7.90356 C143.546,9.53495 142.711,11.7101 142.711,14.3533 C142.711,16.9964 143.546,19.1589 145.202,20.803 C146.859,22.447 149.034,23.2817 151.69,23.2817 C153.119,23.2817 154.396,23.0034 155.484,22.4596 C156.23,22.0802 156.938,21.5617 157.608,20.8915 L157.608,21.3847 C157.608,22.9781 157.178,24.1037 156.331,24.7613 C155.446,25.4442 153.89,25.7857 151.715,25.7857 C150.261,25.7857 149.123,25.5707 148.351,25.128 C147.63,24.7234 147.213,24.129 147.074,23.3196 L147.011,22.9149 L143.887,22.9149 L143.938,23.4461 C144.089,25.0901 144.886,26.38 146.315,27.3032 C147.694,28.1885 149.54,28.6438 151.804,28.6438 C153.245,28.6438 154.548,28.4794 155.673,28.1632 C156.811,27.847 157.811,27.3412 158.62,26.6836 C159.366,26.0892 159.897,25.381 160.226,24.5842 C160.542,23.8002 160.694,22.6873 160.694,21.1823 L160.694,5.82954 L157.596,5.82954 Z M157.596,14.3406 C157.596,16.1617 157.064,17.616 156.002,18.6783 C154.927,19.7533 153.523,20.2718 151.702,20.2718 C149.894,20.2718 148.503,19.7533 147.428,18.6657 C146.353,17.5908 145.835,16.1743 145.835,14.328 C145.835,12.4942 146.353,11.0905 147.428,10.0029 C148.503,8.91528 149.907,8.39677 151.702,8.39677 C153.523,8.39677 154.94,8.91528 156.002,10.0029 C157.064,11.0778 157.596,12.5322 157.596,14.3406 Z" id="Shape" fill="#FF9C00"></path>
                <path d="M27.4923,23.421 C27.9602,24.4833 27.4796,25.7227 26.4173,26.1906 C25.3551,26.6585 24.1157,26.1779 23.6478,25.1156 C23.1799,24.0533 23.6605,22.814 24.7227,22.3461 C25.7977,21.8781 27.037,22.3587 27.4923,23.421 Z" id="Path" fill="#FF9C00"></path>
                <path d="M5.05798,21.613 C6.19614,21.8154 6.96756,22.903 6.76522,24.0412 C6.56288,25.1793 5.47531,25.9508 4.33715,25.7484 C3.19899,25.5461 2.42757,24.4585 2.62991,23.3203 C2.8196,22.1821 3.90717,21.4233 5.05798,21.613 Z" id="Path" fill="#FF9C00"></path>
                <path d="M25.9213,0.63186 C27.0594,0.834203 27.8308,1.9218 27.6285,3.05998 C27.4262,4.19816 26.3386,4.96959 25.2004,4.76725 C24.0623,4.56491 23.2908,3.47731 23.4932,2.33913 C23.6955,1.20095 24.7831,0.429516 25.9213,0.63186 Z" id="Path" fill="#FF9C00"></path>
                <path d="M24.2538,13.0757 L24.2538,13.0631 C24.0514,12.4181 23.4444,11.9502 22.7236,11.9502 C21.8383,11.9502 21.1175,12.671 21.1175,13.5563 C21.1175,13.7207 21.1428,13.8851 21.1934,14.0369 C21.8383,15.9591 21.5095,18.1596 20.1437,19.8416 C18.7274,21.5994 16.5269,22.3582 14.4529,22.0421 C14.3897,22.0294 14.3138,22.0294 14.2506,22.0294 C13.3654,22.0294 12.6445,22.7503 12.6445,23.6355 C12.6445,24.4322 13.2389,25.1025 13.9977,25.2163 C17.1592,25.6842 20.4725,24.5334 22.6351,21.865 C24.709,19.2978 25.2022,15.9844 24.2538,13.0757 Z" id="Path" fill="#20A8FF"></path>
                <path d="M16.1353,18.8555 C16.1353,18.8428 16.148,18.8428 16.1353,18.8555 C16.6665,18.4129 16.8688,17.6794 16.6032,17.0091 C16.2744,16.1871 15.3386,15.795 14.5166,16.1239 C14.3648,16.1871 14.2257,16.2756 14.0993,16.3641 C12.5564,17.6794 10.40657,18.2105 8.31994,17.5782 C6.15743,16.9206 4.62724,15.1754 4.13404,13.1266 C4.12139,13.0634 4.0961,13.0002 4.07081,12.9243 C3.742,12.1023 2.80618,11.7102 1.984178,12.0391 C1.23805,12.3426 0.846017,13.1393 1.0357107,13.8981 C1.794484,16.9965 4.10874,19.6396 7.39676,20.6386 C10.54568,21.6124 13.7958,20.8283 16.1353,18.8555 Z" id="Path" fill="#20A8FF"></path>
                <path d="M6.35849,13.1897 L6.35849,13.2023 C6.56083,13.8473 7.16785,14.3152 7.88868,14.3152 C8.77392,14.3152 9.49475,13.5943 9.49475,12.7091 C9.49475,12.5447 9.46946,12.3803 9.41887,12.2285 C8.77392,10.3063 9.10272,8.10579 10.46851,6.42381 C11.8975,4.6786 14.0853,3.91981 16.172,4.23597 C16.2352,4.24862 16.3111,4.24862 16.3743,4.24862 C17.2595,4.24862 17.9804,3.52777 17.9804,2.64252 C17.9804,1.84579 17.386,1.17553 16.6272,1.06171 C13.4657,0.593793 10.15236,1.74462 7.98985,4.41302 C5.91587,6.96761 5.41002,10.281 6.35849,13.1897 Z" id="Path" fill="#FF9C00"></path>
                <path d="M14.4789,7.41067 C14.4789,7.42332 14.4662,7.42332 14.4789,7.41067 C13.9477,7.8533 13.7454,8.58679 14.011,9.25705 C14.3398,10.0791 15.2756,10.4711 16.0976,10.1423 C16.2494,10.0791 16.3885,9.99055 16.5149,9.90202 C18.0578,8.58679 20.2076,8.05564 22.2943,8.68796 C24.4568,9.34558 25.9869,11.0908 26.4801,13.1395 C26.4928,13.2027 26.5181,13.266 26.5434,13.3419 C26.8722,14.1639 27.808,14.5559 28.63,14.2271 C29.3761,13.9236 29.7682,13.1269 29.5785,12.3681 C28.8197,9.2697 26.5054,6.62659 23.2174,5.62752 C20.0685,4.65374 16.8184,5.43782 14.4789,7.41067 Z" id="Path" fill="#20A8FF"></path>
                <path d="M5.39782,0.556083 C6.53598,0.758427 7.3074,1.84602 7.10506,2.9842 C6.90272,4.12238 5.81515,4.89382 4.67699,4.69147 C3.53883,4.48913 2.76741,3.40154 2.96975,2.26335 C3.17209,1.11253 4.25966,0.35374 5.39782,0.556083 Z" id="Path" fill="#20A8FF"></path>
            </g>
        </g>
    </g>
</svg>