<svg xmlns="http://www.w3.org/2000/svg" width="152.733" height="60.458" viewBox="0 0 152.733 60.458"><defs><style>.a{fill:#fff;}</style></defs><g transform="translate(-5.167 -2.978)"><path class="a" d="M28.5,45.2c-.1-.1-.2-.3-.3-.4-4.9,1.4-14.3,2.2-17.1-2.3a5.563,5.563,0,0,1,2.3-7.9c2.2-1.2,5.9-.9,10,2.4a35.759,35.759,0,0,1,5.5,5.9c.9-.3,1.9-.7,2.9-1.1A20.717,20.717,0,0,0,43.6,30.2c3.1-7.4,2.7-16.6,1.5-24.2-4.6-2-9.2-3.2-13.4-3C14.9,3.7,4.5,21.2,5.2,37.8,5.9,54.5,17.4,64.1,34,63.4a79.238,79.238,0,0,0,12.5-1.6c-8.1-3.3-13.6-10.8-18-16.6"/><path class="a" d="M22.8,38.4a7.989,7.989,0,0,0-4.9-2.1,3.662,3.662,0,0,0-3.2,5.6c1.4,2.2,5.3,3.5,12.4,1.5a28.77,28.77,0,0,0-4.3-5"/><path class="a" d="M49.3,26.8A31.761,31.761,0,0,1,32.4,43.4c-.6.2-1.5.6-2.5.9,11.4,13.2,22.3,16.6,33,11.4,6.2-3,12.9-8.8,12.6-16.1C75,29.2,63.1,17.1,51.9,9.9c.2,6-.8,12.8-2.6,16.9"/><path class="a" d="M143,28.3l.6-2,.5,1.9,4.1,11.4h-9.6ZM129.7,52H134l3.2-8.5h12.2l3.1,8.5h5.4l-2.5-5.5L145.3,18.6l-3,.6Zm-5.3-32.7h-5.1l.6,4.6V52h5l-.5-3.7ZM93.1,49a11.818,11.818,0,0,0,8.9,3.7c6.1,0,9.9-4,9.9-9.6,0-9.7-14-9.1-14-16.3a4.543,4.543,0,0,1,4.8-4.5,12.334,12.334,0,0,1,7.1,2.4L111,21a15.735,15.735,0,0,0-8.2-2.3A9.291,9.291,0,0,0,93.2,28c0,8.8,14.3,9,14.3,15.6a5.115,5.115,0,0,1-5.3,5.4c-4.9,0-8.5-4.4-8.5-4.4s-.5,4.3-.6,4.4"/></g></svg>