<?xml version="1.0" encoding="UTF-8"?>
<svg width="442px" height="46px" viewBox="0 0 442 46" version="1.1" xmlns="http://www.w3.org/2000/svg" xmlns:xlink="http://www.w3.org/1999/xlink">
    <title>Group 47</title>
    <g id="Page-1" stroke="none" stroke-width="1" fill="none" fill-rule="evenodd">
        <g id="Magellan_LogoHierarchy-(6)" transform="translate(-21.000000, -63.000000)">
            <g id="Group-47" transform="translate(21.000000, 63.000000)">
                <path d="M75.5285,14.512 C78.9435,12.79 82.7575,12.016 86.5735,12.271 L80.8655,0.137 L75.4865,0.137 L64.1305,24.511 C67.6095,20.656 71.1715,16.741 75.5525,14.512" id="Fill-3" fill="#71ABCD"></path>
                <path d="M100.3207,41.42 L86.5737,12.265 C82.7557,12.014 78.9397,12.79 75.5227,14.512 C71.1417,16.771 67.5787,20.656 64.1007,24.511 L56.2107,41.42 L54.2567,45.604 L66.2107,45.604 L68.1287,41.42 L68.9357,39.663 L87.5477,39.663 L88.3727,41.42 L90.3337,45.604 L102.2867,45.604 L100.3207,41.42 Z M73.5977,29.598 L78.2657,19.574 L82.8737,29.574 L73.5977,29.598 Z" id="Fill-5" fill="#364585"></path>
                <path d="M118.3471,28.3127 C116.4051,24.9847 116.3851,20.8727 118.2941,17.5257 C120.2031,14.1787 123.7521,12.1027 127.6051,12.0797 C130.4291,12.0687 133.1461,13.1557 135.1841,15.1097 L143.6111,6.7417 C137.6331,0.7867 128.8411,-1.3553 120.7931,1.1827 C112.7461,3.7217 106.7741,10.5197 105.2931,18.8277 C106.3161,19.4247 107.3141,20.1127 108.2821,20.7877 C111.6891,23.1787 114.9941,25.7847 118.3471,28.3067" id="Fill-7" fill="#71ABCD"></path>
                <path d="M142.5536,39.9856 C147.4986,35.6726 150.3326,29.4296 150.323621,22.8676 L150.323621,21.1766 L127.6116,21.1766 L127.6116,29.1736 L136.4036,29.1736 C134.3726,32.0056 131.0956,33.6776 127.6116,33.6616 C126.9676,33.6606 126.3246,33.5986 125.6926,33.4766 C129.4936,35.9936 133.6636,37.9016 138.0526,39.1306 C139.5336,39.5196 141.0396,39.8046 142.5596,39.9856" id="Fill-9" fill="#61ACD1"></path>
                <path d="M138.047,39.1309 C133.658,37.9009 129.487,35.9939 125.687,33.4769 C122.612,32.8899 119.938,31.0089 118.347,28.3129 C114.994,25.7899 111.689,23.1669 108.282,20.7939 C107.314,20.1159 106.318,19.4629 105.293,18.8329 C105.056,20.1649 104.936,21.5149 104.935,22.8679 C104.947,31.3449 109.679,39.1099 117.208,43.0059 C124.737,46.9029 133.809,46.2819 140.737,41.3959 C141.36,40.9509 141.958,40.4719 142.53,39.9619 C141.01,39.7809 139.504,39.4959 138.023,39.1069" id="Fill-11" fill="#364585"></path>
                <path d="M168.8222,27.4759 L183.2502,27.4759 L183.2502,17.4169 L168.8222,17.4169 L168.8222,10.0109 L185.1272,10.0109 L185.1272,0.1379 L156.8802,0.1379 L156.8802,39.0709 C160.9732,38.1019 164.9732,36.7759 168.8342,35.1089 L168.8222,27.4759 Z" id="Fill-13" fill="#71ABCD"></path>
                <path d="M168.8222,35.8436 L168.8222,35.1146 C164.9612,36.7816 160.9612,38.1076 156.8682,39.0776 L156.8682,45.6036 L185.1152,45.6036 L185.1152,35.8436 L168.8222,35.8436 Z" id="Fill-15" fill="#364585"></path>
                <path d="M205.616,0.1375 L193.662,0.1375 L193.662,22.5625 C197.538,20.6335 201.53,18.9485 205.616,17.5185 L205.616,0.1375 Z" id="Fill-17" fill="#71ABCD"></path>
                <path d="M205.616,33.5963 L205.616,17.5063 C201.53,18.9393 197.538,20.6263 193.662,22.5573 L193.662,45.5983 L221.969,45.5983 L221.969,33.5963 L205.616,33.5963 Z" id="Fill-19" fill="#364585"></path>
                <path d="M242.4696,20.716 L242.4696,0.137 L230.5156,0.137 L230.5156,15.498 C230.9876,15.612 231.4606,15.743 231.9326,15.887 C235.6226,17.066 239.1566,18.688 242.4576,20.716" id="Fill-21" fill="#71ABCD"></path>
                <path d="M242.4696,33.5963 L242.4696,20.7163 C239.1676,18.6883 235.6336,17.0653 231.9446,15.8803 C231.4726,15.7433 230.9996,15.6113 230.5276,15.4983 L230.5276,45.5983 L258.8346,45.5983 L258.8346,33.5963 L242.4696,33.5963 Z" id="Fill-23" fill="#364585"></path>
                <path d="M286.3462,29.5977 L283.6862,29.5977 L288.3482,19.5987 L291.6712,26.8067 C294.7502,25.0497 297.8042,23.1127 300.8822,21.2237 L290.9842,0.1377 L285.6052,0.1377 L270.0652,33.3567 C275.7852,33.6557 281.1402,32.0597 286.3462,29.5977" id="Fill-25" fill="#71ABCD"></path>
                <path d="M310.3854,41.42 L300.8824,21.224 C297.8044,23.113 294.7494,25.049 291.6714,26.806 L292.9564,29.598 L286.3464,29.598 C281.1404,32.06 275.7854,33.656 270.0654,33.357 L266.2994,41.42 L264.3454,45.604 L276.2994,45.604 L278.2174,41.42 L279.0304,39.663 L297.6364,39.663 L298.4614,41.42 L300.4274,45.604 L312.3814,45.604 L310.3854,41.42 Z" id="Fill-27" fill="#364585"></path>
                <path d="M335.4944,12.3364 L323.2594,0.1374 L318.4064,0.1374 L318.4064,12.6114 C319.8194,12.1954 321.2564,11.8674 322.7094,11.6314 C326.9714,10.9644 331.3264,11.2044 335.4884,12.3364" id="Fill-29" fill="#71ABCD"></path>
                <path d="M356.7304,29.4005 L356.7304,0.1135 L344.7764,0.1135 L344.7764,16.3885 C349.8844,19.5405 354.0224,24.0435 356.7304,29.4005" id="Fill-31" fill="#71ABCD"></path>
                <path d="M344.7765,16.3887 L344.7765,21.5947 L335.4885,12.3367 C331.3255,11.2047 326.9715,10.9637 322.7095,11.6307 C321.2565,11.8677 319.8185,12.1947 318.4065,12.6117 L318.4065,45.5977 L330.3605,45.5977 L330.3605,24.0807 L347.6515,41.4137 L351.8355,45.5977 L356.7305,45.5977 L356.7305,29.4007 C354.0215,24.0437 349.8845,19.5407 344.7765,16.3887" id="Fill-33" fill="#364585"></path>
                <path d="M12.3226,23.5431 L12.3226,22.3481 L13.3806,23.3041 C15.6256,22.8041 17.9556,22.8181 20.1946,23.3461 C23.6246,24.1891 26.7026,26.0891 29.6916,28.1811 L36.1406,22.2881 L36.1406,32.6761 C39.3086,34.6841 42.5956,36.1961 46.3016,36.1901178 C46.9126,36.1851 47.5236,36.1431 48.1306,36.0651 L48.1306,0.1371 L42.7506,0.1371 L24.2646,16.9921 L5.7356,0.1371 L0.3566,0.1371 L0.3566,34.9591 C2.0546,29.4181 6.8656,25.0971 12.3586,23.5431" id="Fill-35" fill="#71ABCD"></path>
                <path d="M29.6915,28.1573 C26.7035,26.0653 23.6245,24.1643 20.1945,23.3223 C17.9555,22.7943 15.6255,22.7803 13.3805,23.2803 L24.2645,33.1123 L29.6915,28.1573 Z" id="Fill-37" fill="#334388"></path>
                <path d="M0.321,34.959 L0.321,45.598 L12.323,45.598 L12.323,23.543 C6.83,25.097 2.018,29.418 0.321,34.959" id="Fill-39" fill="#364585"></path>
                <path d="M46.3133,36.1664 C42.5953,36.1664 39.3083,34.6604 36.1523,32.6524 L36.1523,45.5984 L48.1423,45.5984 L48.1423,36.0344 C47.5353,36.1134 46.9253,36.1554 46.3133,36.1604" id="Fill-41" fill="#364585"></path>
                <path d="M394.5648,29.5914 L403.8448,29.5914 L399.2348,19.5834 L394.5648,29.5914 Z M375.2158,45.6044 L396.4448,0.1134 L401.8428,0.1134 L423.2538,45.6044 L411.3048,45.6044 L408.5148,39.6594 L389.8948,39.6594 L387.1648,45.6044 L375.2158,45.6044 Z" id="Fill-43" fill="#71ABCD"></path>
                <polygon id="Fill-45" fill="#71ABCD" points="429.258 45.604 441.207 45.604 441.207 0.114 429.258 0.114"></polygon>
            </g>
        </g>
    </g>
</svg>