<?xml version="1.0" encoding="utf-8"?>
<!-- Generator: Adobe Illustrator 14.0.0, SVG Export Plug-In . SVG Version: 6.00 Build 43363)  -->
<!DOCTYPE svg PUBLIC "-//W3C//DTD SVG 1.1//EN" "http://www.w3.org/Graphics/SVG/1.1/DTD/svg11.dtd">
<svg version="1.1" id="Layer_1" xmlns="http://www.w3.org/2000/svg" xmlns:xlink="http://www.w3.org/1999/xlink" x="0px" y="0px"
	 width="1977.2px" height="444.044px" viewBox="0 0 1977.2 444.044" enable-background="new 0 0 1977.2 444.044"
	 xml:space="preserve">
<g>
	<defs>
		<rect id="SVGID_1_" x="-657.145" y="-859.887" width="2520.632" height="2581.861"/>
	</defs>
	<clipPath id="SVGID_2_">
		<use xlink:href="#SVGID_1_"  overflow="visible"/>
	</clipPath>
	<rect x="198.496" y="44.675" clip-path="url(#SVGID_2_)" fill="#EC1459" width="39.345" height="369.812"/>
	<rect x="29.673" y="207.152" clip-path="url(#SVGID_2_)" fill="#EC1459" width="370.829" height="39.475"/>
	<path clip-path="url(#SVGID_2_)" fill="#61C4B9" d="M400.394,207.143c0,0-8.896,8.549-8.355,7.957L237.537,370.646
		c-10.781,10.854-28.359,10.889-39.179,0.068l-58.094-58.069l0.015-0.01L77.2,249.58c0.027-0.02,0.053-0.042,0.078-0.065
		l-1.929-1.931c-10.822-10.816-10.852-28.449-0.071-39.305l1.08-1.089c-0.024-0.02-0.054-0.04-0.083-0.058L222.08,60.314
		l15.767-15.64V17.904c0-22.652-17.514-7.119-23.204-0.999c0,0-15.934,15.582-16.896,16.553L24.031,208.372
		c-10.781,10.856-10.749,28.491,0.073,39.307L198.45,421.96c10.821,10.815,28.396,10.785,39.182-0.075L403.588,254.78l0.104,0.105
		l30.615-30.713l-6.538,6.552c6.1-5.706,21.884-23.582-0.696-23.582H400.394z"/>
</g>
<path fill="#FFFFFF" d="M577.584,316.363c-15.277,0-29.784-2.385-43.514-7.135c-13.74-4.759-25.885-11.898-36.448-21.412
	l26.328-31.619c17.065,13.693,35.507,20.542,55.341,20.542c6.335,0,11.17-1.016,14.503-3.049c3.333-2.035,4.999-4.928,4.999-8.672
	v-0.484c0-1.789-0.409-3.379-1.22-4.764c-0.816-1.383-2.317-2.724-4.512-4.025c-2.192-1.301-5.114-2.563-8.773-3.783
	c-3.657-1.222-8.412-2.484-14.261-3.788c-9.104-2.115-17.552-4.433-25.355-6.959c-7.797-2.519-14.589-5.778-20.353-9.766
	c-5.771-3.986-10.323-8.951-13.654-14.895c-3.332-5.935-4.996-13.301-4.996-22.096v-0.482c0-7.976,1.5-15.301,4.507-21.97
	c3.007-6.679,7.394-12.459,13.166-17.338c5.768-4.883,12.716-8.669,20.842-11.355c8.126-2.682,17.309-4.028,27.548-4.028
	c14.626,0,27.668,1.928,39.127,5.786c11.458,3.857,21.815,9.562,31.083,17.102l-23.647,33.612
	c-7.805-5.547-15.812-9.742-24.015-12.597c-8.208-2.854-16.129-4.285-23.77-4.285c-5.69,0-9.953,1.059-12.798,3.179
	c-2.841,2.12-4.263,4.719-4.263,7.809v0.489c0,1.951,0.446,3.66,1.34,5.127c0.892,1.467,2.436,2.81,4.632,4.034
	c2.192,1.225,5.198,2.44,9.019,3.659c3.819,1.225,8.654,2.483,14.506,3.787c9.749,2.114,18.567,4.595,26.45,7.436
	c7.881,2.856,14.586,6.315,20.113,10.386c5.523,4.066,9.749,8.993,12.678,14.773c2.923,5.779,4.388,12.652,4.388,20.622v0.493
	c0,8.786-1.668,16.602-5,23.438c-3.332,6.836-8.007,12.657-14.019,17.455c-6.015,4.805-13.247,8.469-21.693,10.988
	C597.411,315.105,587.983,316.363,577.584,316.363"/>
<rect x="738.184" y="142.222" fill="#FFFFFF" width="47.534" height="171.201"/>
<polygon fill="#FFFFFF" points="930.713,226.356 874.643,142.219 929.006,142.219 959.236,190.405 989.711,142.219 
	1042.855,142.219 986.78,225.869 1045.288,313.423 990.928,313.423 958.261,261.821 925.351,313.423 872.202,313.423 "/>
<path fill="#FFFFFF" d="M1137.628,142.222h67.287c9.911,0,18.893,1.345,26.933,4.036c8.049,2.693,14.878,6.563,20.484,11.613
	c5.605,5.06,9.917,11.092,12.918,18.102c3.004,7.015,4.512,14.841,4.512,23.484v0.484c0,9.624-1.793,18.061-5.384,25.313
	c-3.588,7.26-8.472,13.332-14.66,18.223s-13.437,8.6-21.743,11.127c-8.312,2.531-17.188,3.79-26.638,3.79h-33.967v55.028h-29.742
	V142.222z M1202.347,231.245c11.412,0,20.429-2.858,27.036-8.591c6.601-5.729,9.902-13.095,9.902-22.103v-0.486
	c0-10.152-3.346-17.801-10.028-22.959c-6.687-5.157-15.652-7.738-26.91-7.738h-34.977v61.876H1202.347z"/>
<polygon fill="#FFFFFF" points="1368.192,142.219 1397.935,142.219 1397.935,286.277 1487.645,286.277 1487.645,313.423 
	1368.192,313.423 "/>
<path fill="#FFFFFF" d="M1656.767,316.117c-11.054,0-21.045-1.588-29.984-4.771c-8.934-3.178-16.577-7.945-22.918-14.307
	c-6.331-6.359-11.212-14.225-14.622-23.604c-3.411-9.37-5.118-20.254-5.118-32.648v-98.565h29.737v97.337
	c0,15.987,3.848,28.128,11.523,36.448c7.687,8.312,18.307,12.473,31.873,12.473c13.403,0,23.942-3.996,31.632-11.986
	c7.672-7.984,11.517-19.892,11.517-35.707v-98.565h29.744v97.096c0,12.716-1.753,23.891-5.245,33.508
	c-3.496,9.625-8.407,17.652-14.748,24.092c-6.339,6.444-14.013,11.25-23.034,14.428
	C1678.104,314.529,1667.982,316.117,1656.767,316.117"/>
<path fill="#FFFFFF" d="M1899.037,315.869c-13.168,0-25.759-2.24-37.789-6.727c-12.027-4.48-23.155-11.371-33.398-20.66
	l18.039-21.525c8.295,7.174,16.659,12.68,25.11,16.51c8.446,3.832,18.043,5.743,28.77,5.743c9.259,0,16.613-1.951,22.061-5.867
	c5.443-3.913,8.168-9.13,8.168-15.649v-0.492c0-3.097-0.532-5.831-1.588-8.193c-1.063-2.362-3.019-4.602-5.862-6.727
	c-2.858-2.114-6.769-4.073-11.74-5.867c-4.97-1.796-11.442-3.586-19.428-5.381c-9.129-2.119-17.235-4.525-24.313-7.216
	c-7.089-2.689-13.035-5.952-17.845-9.786c-4.81-3.826-8.478-8.514-11.002-14.061c-2.527-5.543-3.782-12.231-3.782-20.056v-0.487
	c0-7.337,1.441-14.067,4.34-20.182c2.91-6.111,6.895-11.331,11.974-15.651c5.081-4.319,11.184-7.705,18.324-10.147
	c7.133-2.445,14.927-3.668,23.378-3.668c12.518,0,23.766,1.833,33.769,5.501c9.991,3.671,19.378,9.011,28.153,16.018l-16.09,22.745
	c-7.798-5.704-15.523-10.066-23.155-13.085c-7.646-3.015-15.36-4.523-23.164-4.523c-8.779,0-15.601,1.958-20.478,5.874
	c-4.876,3.908-7.309,8.725-7.309,14.428v0.485c0,3.267,0.563,6.162,1.705,8.683c1.142,2.533,3.211,4.816,6.229,6.849
	c3.016,2.045,7.168,3.957,12.467,5.752c5.296,1.794,12.014,3.668,20.162,5.62c8.957,2.288,16.911,4.817,23.829,7.586
	c6.931,2.771,12.668,6.155,17.231,10.152c4.565,3.997,8.023,8.644,10.387,13.939c2.366,5.301,3.548,11.453,3.548,18.464v0.49
	c0,7.988-1.491,15.162-4.478,21.521c-2.986,6.361-7.131,11.74-12.451,16.144c-5.319,4.403-11.71,7.747-19.171,10.028
	C1916.176,314.73,1907.969,315.869,1899.037,315.869"/>
</svg>
