<?xml version="1.0" encoding="UTF-8"?>
<svg width="490px" height="109px" viewBox="0 0 490 109" version="1.1" xmlns="http://www.w3.org/2000/svg" xmlns:xlink="http://www.w3.org/1999/xlink">
    <!-- Generator: Sketch 46.1 (44463) - http://www.bohemiancoding.com/sketch -->
    <title>logo-horizontal-white</title>
    <desc>Created with Sketch.</desc>
    <defs></defs>
    <g id="Search-Page" stroke="none" stroke-width="1" fill="none" fill-rule="evenodd">
        <g id="logo-horizontal-white" fill-rule="nonzero">
            <g id="Group">
                <g id="Clipped" transform="translate(47.000000, 10.000000)" fill="#EC1459">
                    <rect id="Rectangle-path" x="0.030226236" y="0.350957763" width="10.0616281" height="94.5713769"></rect>
                </g>
                <g id="Clipped" transform="translate(3.000000, 51.000000)" fill="#EC1459">
                    <rect id="Rectangle-path" x="0.85741529" y="0.900917212" width="94.8314525" height="10.0948728"></rect>
                </g>
                <g id="Clipped" fill="#61C4B9">
                    <path d="M98.6612492,51.8986157 C98.6612492,51.8986157 96.3862906,54.0848365 96.5246396,53.9334454 L57.014113,93.7109523 C54.2571067,96.4866268 49.7619154,96.4955772 46.9949357,93.7283418 L32.1386586,78.8784579 L32.1424945,78.8759006 L16.011412,62.7509556 C16.0183167,62.745841 16.0249656,62.740215 16.0313588,62.7343332 L15.538059,62.240522 C12.7705678,59.4745652 12.762896,54.9653089 15.5199023,52.189123 L15.7960888,51.9106349 C15.7899513,51.9055203 15.7822795,51.9004058 15.7748634,51.8958026 L53.0613214,14.3502919 L57.0933887,10.350702 L57.0933887,3.50485669 C57.0933887,-2.28789971 52.6145641,1.68432725 51.1594703,3.24938416 C51.1594703,3.24938416 47.0846964,7.23414181 46.8386858,7.48245394 L2.41459648,52.2129057 C-0.342409818,54.9890916 -0.334226513,59.4988594 2.43326465,62.2648161 L47.0184627,106.833392 C49.7856982,109.599093 54.2801222,109.591421 57.0384072,106.814212 L99.4780452,64.0807425 L99.5046409,64.1075939 L107.333761,56.2534121 L105.66181,57.9289436 C107.221752,56.4697582 111.258167,51.8983599 105.483823,51.8983599 L98.6612492,51.8983599 L98.6612492,51.8986157 Z" id="Shape"></path>
                </g>
            </g>
            <path d="M143.973738,79.8292555 C140.066978,79.8292555 136.357128,79.2193436 132.845979,78.0046344 C129.332273,76.7876237 126.226453,74.9619797 123.525196,72.5289811 L130.258009,64.4431094 C134.622012,67.9447964 139.338152,69.6962792 144.410267,69.6962792 C146.030305,69.6962792 147.266751,69.4364593 148.119093,68.9165637 C148.971436,68.3961567 149.397479,67.6563349 149.397479,66.6988883 L149.397479,66.5751159 C149.397479,66.117618 149.292886,65.7110101 149.08549,65.3568265 C148.876816,65.0031543 148.492968,64.6602227 147.931645,64.3275202 C147.371088,63.9948178 146.62385,63.6720887 145.688141,63.3601003 C144.752942,63.0476003 143.536955,62.7248713 142.0412,62.3914016 C139.71305,61.8505364 137.552658,61.2577583 135.55721,60.6117887 C133.563297,59.9676092 131.826391,59.1341909 130.352373,58.1143466 C128.876565,57.0950138 127.71249,55.825323 126.860659,54.3052743 C126.008573,52.7875271 125.583041,50.9038328 125.583041,48.6547028 L125.583041,48.5314417 C125.583041,46.4917532 125.966633,44.6185437 126.735608,42.913092 C127.504583,41.205083 128.626463,39.7269737 130.102526,38.4792756 C131.577567,37.2305545 133.354367,36.2623673 135.432415,35.5754812 C137.510463,34.8896181 139.858815,34.5454078 142.477217,34.5454078 C146.217498,34.5454078 149.552706,35.0384519 152.483096,36.0250515 C155.41323,37.0113954 158.061808,38.4703251 160.431897,40.3985161 L154.384691,48.9940542 C152.388732,47.5755295 150.341116,46.5027495 148.243377,45.7726453 C146.14436,45.0427969 144.118736,44.6768498 142.164717,44.6768498 C140.709623,44.6768498 139.619453,44.947666 138.891907,45.4898099 C138.165383,46.0319538 137.801737,46.6965915 137.801737,47.4867918 L137.801737,47.6118429 C137.801737,48.1107688 137.915792,48.5478084 138.144413,48.9229617 C138.372522,49.298115 138.767367,49.6415581 139.328946,49.9545695 C139.889502,50.2678366 140.658222,50.5785464 141.635359,50.8902792 C142.611985,51.2035463 143.848432,51.5252524 145.344953,51.858722 C147.838048,52.3993316 150.09306,53.0337934 152.108966,53.7603173 C154.12436,54.4906772 155.839018,55.3752413 157.252428,56.416311 C158.664815,57.4561021 159.745523,58.7160752 160.494551,60.1941845 C161.242044,61.6720381 161.616686,63.4296583 161.616686,65.4678125 L161.616686,65.5938865 C161.616686,67.840715 161.190132,69.839487 160.338045,71.5876454 C159.485959,73.3358037 158.290429,74.8243979 156.752991,76.051382 C155.214785,77.2801563 153.365359,78.2171446 151.205478,78.8613241 C149.044062,79.5075494 146.633057,79.8292555 143.973738,79.8292555" id="Shape" fill="#4A4A4A"></path>
            <rect id="Rectangle-path" fill="#4A4A4A" x="185.043696" y="35.2964817" width="12.1557868" height="43.7809327"></rect>
            <polygon id="Shape" fill="#4A4A4A" points="234.278801 56.8119226 219.940118 35.2957145 233.842273 35.2957145 241.572938 47.6182361 249.366256 35.2957145 262.956679 35.2957145 248.616717 56.6873829 263.578865 79.0774144 249.677478 79.0774144 241.323603 65.8813251 232.907586 79.0774144 219.315885 79.0774144"></polygon>
            <path d="M287.192812,35.2964817 L304.399999,35.2964817 C306.934522,35.2964817 309.231473,35.6404362 311.287528,36.3286009 C313.345885,37.0172771 315.092253,38.0069455 316.525866,39.2983731 C317.959223,40.5923581 319.061923,42.1349109 319.829364,43.927566 C320.597571,45.7214997 320.983209,47.722829 320.983209,49.9330883 L320.983209,50.0568608 C320.983209,52.5179895 320.524689,54.6755688 319.606369,56.5301101 C318.688816,58.3866972 317.439839,59.9394791 315.857392,61.190246 C314.274946,62.4410129 312.421172,63.389509 310.297093,64.0357343 C308.17148,64.6829825 305.901636,65.0049444 303.485004,65.0049444 L294.798682,65.0049444 L294.798682,79.0771587 L287.192812,79.0771587 L287.192812,35.2964817 L287.192812,35.2964817 Z M303.743289,58.062178 C306.66166,58.062178 308.967562,57.3313067 310.657158,55.8652166 C312.345221,54.4001494 313.189379,52.5164551 313.189379,50.212855 L313.189379,50.0885711 C313.189379,47.4924178 312.333713,45.5363524 310.624937,44.2173061 C308.914882,42.8985155 306.622278,42.2384809 303.743289,42.2384809 L294.798682,42.2384809 L294.798682,58.0619223 L303.743289,58.0619223 L303.743289,58.062178 Z" id="Shape" fill="#4A4A4A"></path>
            <polygon id="Shape" fill="#4A4A4A" points="346.154541 35.2957145 353.760667 35.2957145 353.760667 72.1354153 376.702049 72.1354153 376.702049 79.0774144 346.154541 79.0774144"></polygon>
            <path d="M419.951322,79.7663464 C417.124502,79.7663464 414.569521,79.3602499 412.283566,78.5462669 C409.99889,77.7335625 408.044359,76.5145059 406.422786,74.8875627 C404.803771,73.2613868 403.555561,71.2498283 402.683528,68.851353 C401.811239,66.4551793 401.37471,63.671833 401.37471,60.502337 L401.37471,35.2964817 L408.979302,35.2964817 L408.979302,60.1883027 C408.979302,64.2766303 409.963344,67.381427 411.926058,69.5090861 C413.891841,71.6346994 416.607675,72.6987846 420.076885,72.6987846 C423.504411,72.6987846 426.199531,71.6768945 428.166081,69.6336258 C430.128028,67.5918914 431.111303,64.5466793 431.111303,60.502337 L431.111303,35.2964817 L438.717684,35.2964817 L438.717684,60.1266722 C438.717684,63.3785127 438.269393,66.2362759 437.37639,68.6956145 C436.482364,71.156999 435.226482,73.2097297 433.604909,74.8566196 C431.983848,76.5045325 430.021389,77.7335625 427.714465,78.5462669 C425.407796,79.3602499 422.819315,79.7663464 419.951322,79.7663464" id="Shape" fill="#4A4A4A"></path>
            <path d="M474.234759,79.7029258 C470.867329,79.7029258 467.647455,79.1300945 464.571044,77.9826418 C461.4954,76.8369792 458.649656,75.0747558 456.030231,72.6992961 L460.643313,67.1947454 C462.764579,69.0293399 464.90349,70.4373797 467.06465,71.4168189 C469.224531,72.3967695 471.678755,72.8854662 474.421952,72.8854662 C476.78974,72.8854662 478.670365,72.3865404 480.063573,71.3851086 C481.455502,70.3844439 482.152361,69.0503096 482.152361,67.3832171 L482.152361,67.2573988 C482.152361,66.4654084 482.016314,65.7662474 481.746265,65.1622173 C481.474425,64.5581871 480.974221,63.9853558 480.247186,63.4419333 C479.516314,62.9013238 478.516161,62.4003521 477.244936,61.9415756 C475.973966,61.4822877 474.318893,61.0245341 472.276647,60.5655019 C469.942104,60.0236137 467.869171,59.4083316 466.059126,58.7201668 C464.246269,58.0325135 462.725709,57.1980723 461.495656,56.2176101 C460.265603,55.2391938 459.327592,54.0403398 458.682133,52.6218152 C458.035908,51.2043134 457.714969,49.4940029 457.714969,47.4929293 L457.714969,47.3683896 C457.714969,45.4921115 458.083474,43.7710603 458.82483,42.207282 C459.568999,40.6445267 460.588076,39.3096252 461.88692,38.2048791 C463.186275,37.1003888 464.746985,36.2344929 466.572884,35.6100045 C468.396994,34.984749 470.39014,34.6719933 472.5513,34.6719933 C475.752506,34.6719933 478.628937,35.1407432 481.186987,36.0787544 C483.741968,37.0175329 486.142489,38.3831217 488.386504,40.1750096 L484.271837,45.9915487 C482.277668,44.5328748 480.302167,43.4173881 478.350449,42.6453445 C476.395151,41.8743238 474.422463,41.4886856 472.42676,41.4886856 C470.181722,41.4886856 468.437143,41.9894016 467.189957,42.9908334 C465.943026,43.9902194 465.320839,45.2220624 465.320839,46.6804806 L465.320839,46.8045088 C465.320839,47.6399731 465.464814,48.3803063 465.756856,49.0249973 C466.048897,49.6727569 466.577999,50.2565845 467.349787,50.7764801 C468.121063,51.2994444 469.182847,51.7883968 470.537951,52.247429 C471.892288,52.7062055 473.61027,53.1854402 475.693944,53.6846218 C477.984502,54.269728 480.018565,54.9164648 481.787693,55.6245763 C483.560145,56.3331993 485.027258,57.1985837 486.194146,58.2207295 C487.361546,59.2428754 488.245854,60.4312446 488.850395,61.7853257 C489.455449,63.1409411 489.757719,64.7141814 489.757719,66.5070921 L489.757719,66.632399 C489.757719,68.6751563 489.376429,70.5097508 488.612568,72.1359267 C487.848964,73.7626141 486.78897,75.1381764 485.428496,76.2644037 C484.068277,77.3903752 482.433918,78.2455304 480.525929,78.8288466 C478.617685,79.4116513 476.518923,79.7029258 474.234759,79.7029258" id="Shape" fill="#4A4A4A"></path>
        </g>
    </g>
</svg>