<svg xmlns="http://www.w3.org/2000/svg" width="360.515" height="86.82" viewBox="0 0 360.515 86.82">
  <g id="text-splitgate-white" transform="translate(-613.648 -49)">
    <path id="Path_2112" data-name="Path 2112" d="M42.816,42.17a5.767,5.767,0,0,1,2.876,3.53c.521,1.893.2,7.838.2,7.838a3.536,3.536,0,0,1-3.543,3.543H6.228A6.228,6.228,0,0,0,0,63.308H42.414a9.711,9.711,0,0,0,9.7-9.7V52.026a9.309,9.309,0,0,0-2.685-6.432A16,16,0,0,0,42.816,42.17Z" transform="translate(613.648 34.651)" fill="#fff"/>
    <path id="Path_2111" data-name="Path 2111" d="M35.321,42.83a3.041,3.041,0,0,0-2.342,1.115.429.429,0,0,0-.145.112c-1.7,1.814-10.714,1.933-10.714,1.933s8.834-.119,10.892,1.913h.053a3.015,3.015,0,0,0,4.506,0h0c2.058-2.032,10.892-1.913,10.892-1.913s-9.012-.119-10.714-1.933h0A3.015,3.015,0,0,0,35.321,42.83Z" transform="translate(606.121 34.426)" fill="#fff"/>
    <path id="Path_2110" data-name="Path 2110" d="M14.249,40.848a5.759,5.759,0,0,1-2.876-3.53c-.528-1.893-.211-7.838-.211-7.838a3.549,3.549,0,0,1,3.549-3.549H46.219A6.228,6.228,0,0,0,52.48,19.71H14.651a9.711,9.711,0,0,0-9.711,9.7v1.583a9.3,9.3,0,0,0,2.678,6.432C8.608,38.479,12.395,40.65,14.249,40.848Z" transform="translate(611.967 42.293)" fill="#fff"/>
    <path id="Path_2109" data-name="Path 2109" d="M134.484,22.952V39.326a9.724,9.724,0,0,1-9.731,9.7H93.5l1.319-1.484a13.531,13.531,0,0,1,10.292-4.75H124.7a3.563,3.563,0,0,0,3.563-3.563h0V23.018a3.556,3.556,0,0,0-3.556-3.563H93.5V49.031h0V80.592A6.228,6.228,0,0,1,87.28,86.82V13.228h37.506a9.711,9.711,0,0,1,9.7,9.724ZM141.747,0V49.031h6.228V6.221A6.234,6.234,0,0,0,141.747,0Zm59.989,22.932V39.3a9.718,9.718,0,0,0,9.691,9.731h31.291a7.778,7.778,0,0,0-7.547-6.228H211.5a3.543,3.543,0,0,1-3.543-3.543V23h0a3.543,3.543,0,0,1,3.543-3.543h31.218V52.475h0a3.556,3.556,0,0,1-3.556,3.556H198.134a6.228,6.228,0,0,0-6.228,6.228h47.329a9.711,9.711,0,0,0,9.711-9.7V13.228H211.461A9.718,9.718,0,0,0,201.736,22.932Zm-46.5-9.7v35.8h6.228V19.455h0A6.228,6.228,0,0,0,155.239,13.228ZM347.549,34.247v4.928a3.629,3.629,0,0,0,3.629,3.629h37.354a6.215,6.215,0,0,1-6.221,6.228H351.026a9.718,9.718,0,0,1-9.7-9.731h0V13.228h39.2a9.718,9.718,0,0,1,9.691,9.731v1.583a9.718,9.718,0,0,1-9.724,9.7h-32.94Zm0-6.228h32.828a3.615,3.615,0,0,0,3.6-3.609h0V23.091a3.615,3.615,0,0,0-3.615-3.615H347.549ZM334.421,42.8H318.033a3.556,3.556,0,0,1-3.556-3.556V19.455h21.336a6.228,6.228,0,0,0-6.228-6.228H314.477v-7h0A6.228,6.228,0,0,0,308.249,0V39.3a9.718,9.718,0,0,0,9.7,9.731h22.088a12.62,12.62,0,0,1-3.2-4.572,2.639,2.639,0,0,0-2.421-1.656Zm-137.1,1.656a2.639,2.639,0,0,0-2.421-1.656H178.507a3.563,3.563,0,0,1-3.556-3.556V19.455h21.336a6.228,6.228,0,0,0-6.228-6.228H174.951v-7h0A6.228,6.228,0,0,0,168.723,0V39.3a9.718,9.718,0,0,0,9.7,9.731h22.1A12.535,12.535,0,0,1,197.316,44.459Zm105.451-21.5V49.031H263.573a9.711,9.711,0,0,1-9.7-9.731h0V37.717a9.711,9.711,0,0,1,9.724-9.7h32.94V23.091a3.615,3.615,0,0,0-3.609-3.629H255.557a6.221,6.221,0,0,1,6.221-6.228h31.291A9.711,9.711,0,0,1,302.767,22.959ZM296.539,34.24H263.711a3.615,3.615,0,0,0-3.615,3.615h0v1.319a3.622,3.622,0,0,0,3.615,3.615h32.828Z" transform="translate(583.949 49)" fill="#fff"/>
  </g>
</svg>
